<svg width="32" height="32" viewBox="0 0 32 32" fill="none" xmlns="http://www.w3.org/2000/svg">
<g clip-path="url(#clip0_17_7787)">
<path d="M6.5 19.4848L8.62132 17.3634C9.18393 16.8008 9.94699 16.4848 10.7426 16.4848H21.25C22.2165 16.4848 23 17.2683 23 18.2348C23 19.2013 22.2165 19.9848 21.25 19.9848H16M12 24.9848H21.3219C22.0792 24.9848 22.8084 24.6984 23.3633 24.1831L28.9379 19.0067C29.3067 18.6643 29.5834 18.2345 29.7426 17.757L30.4136 15.7438C30.773 14.6658 30.3718 13.2021 29.2963 13.5688C28.6511 13.7887 27.9713 14.416 27.3839 15.5956C27.1034 16.1588 26.7201 16.6752 26.1797 16.9973C24.9757 17.7149 23.5 18.4848 23.5 18.4848" stroke="white" stroke-width="2" stroke-linecap="round" stroke-linejoin="round"/>
<rect width="12" height="5" rx="2" transform="matrix(-0.707107 -0.707107 -0.707107 0.707107 13.0205 25.9702)" stroke="white" stroke-width="2"/>
<circle cx="17" cy="8.48486" r="5" fill="#2F8AF5"/>
</g>
<defs>
<clipPath id="clip0_17_7787">
<rect width="32" height="32" fill="white" transform="matrix(-1 0 0 1 32 0)"/>
</clipPath>
</defs>
</svg>
