<svg width="32" height="32" viewBox="0 0 32 32" fill="none" xmlns="http://www.w3.org/2000/svg">
<path d="M1.29279 1.29254C1.6049 0.980429 2.08472 0.909712 2.47345 1.11871L8.34259 4.27789C10.5433 2.83756 13.1749 1.99958 15.9998 1.99957C23.7318 1.99957 29.9998 8.2676 29.9998 15.9996C29.9998 19.1316 28.9674 22.0229 27.2293 24.355L29.8436 28.4634C30.0952 28.8589 30.0382 29.3762 29.7068 29.7076C29.3754 30.039 28.8581 30.096 28.4627 29.8443L24.3553 27.2291C22.0231 28.9671 19.1318 29.9996 15.9998 29.9996C8.26784 29.9996 1.99982 23.7316 1.99982 15.9996C1.99982 13.1746 2.8378 10.543 4.27814 8.34235L1.11896 2.47321C0.909954 2.08448 0.980672 1.60465 1.29279 1.29254ZM15.9998 3.99957C13.3816 3.99958 10.962 4.83752 8.99005 6.25934C8.67963 6.48309 8.26847 6.50988 7.93146 6.32867L4.45978 4.45953L6.06525 7.44196L6.99982 8.99957L6.6756 10.6226C6.56414 11.1805 6.69458 11.7603 7.03595 12.2154L7.59943 12.9664C7.85878 13.3124 7.99971 13.7332 7.99982 14.1656V20.9996C8.00009 21.5516 8.4477 21.9996 8.99982 21.9996H11.1795C12.7369 21.9992 13.9996 20.7357 13.9998 19.1783C13.9999 17.8428 14.7546 16.6222 15.949 16.025L16.0506 15.9742C17.2451 15.377 17.9996 14.1553 17.9998 12.8199C17.9999 11.2622 19.2625 9.99985 20.8201 9.99957H22.9998C23.552 9.99969 23.9998 10.4474 23.9998 10.9996V17.8326C23.9999 18.2652 24.1406 18.6867 24.4002 19.0328L24.9637 19.7838C25.3047 20.2388 25.4354 20.8179 25.324 21.3755L25.1668 22.1666C25.0758 22.6221 25.147 23.0918 25.3631 23.4976C27.0112 21.4426 27.9998 18.8387 27.9998 15.9996C27.9998 9.37217 22.6272 3.99957 15.9998 3.99957ZM21.1707 18.2691C21.1257 18.0666 20.84 18.0579 20.783 18.2574L20.2274 20.2017C20.0957 20.6642 20.3119 21.1556 20.742 21.3707L21.6238 21.8111C21.7741 21.8859 21.9448 21.7533 21.909 21.5894L21.1707 18.2691Z" fill="white"/>
<path d="M10.0912 10.4086L10.829 13.729C10.874 13.9315 11.1596 13.94 11.2165 13.7405L11.772 11.7964C11.9042 11.3337 11.6881 10.8425 11.2577 10.6273L10.3758 10.1864C10.2252 10.111 10.0546 10.2442 10.0912 10.4086Z" fill="#2F8AF5"/>
</svg>
