<svg width="32" height="32" viewBox="0 0 32 32" fill="none" xmlns="http://www.w3.org/2000/svg">
<path fill-rule="evenodd" clip-rule="evenodd" d="M28 16C28 22.6274 22.6274 28 16 28C9.37258 28 4 22.6274 4 16C4 9.37256 9.37258 4 16 4C22.6274 4 28 9.37256 28 16Z" stroke="white" stroke-width="2" stroke-linecap="round" stroke-linejoin="round"/>
<path d="M11.9999 15.3999L11.3999 23.9999L18.5999 19.1999L13.5999 19.9999L11.9999 15.3999Z" fill="#2F8AF5"/>
<path d="M11.4247 23.9834C11.4171 23.979 11.4095 23.9747 11.402 23.9703L11.6317 20.6774C12.3495 21.348 13.2218 21.8554 14.1894 22.1402L11.4247 23.9834Z" fill="#2F8AF5"/>
<path d="M14.3998 18.8002L12.7998 14.0002L20.5998 8.2002L19.3998 18.0002L14.3998 18.8002Z" fill="#2F8AF5"/>
<path d="M20.2325 11.1996L20.5998 8.2002L18.1966 9.98721C18.9521 10.2633 19.6409 10.6775 20.2325 11.1996Z" fill="#2F8AF5"/>
</svg>
