<svg width="151" height="56" viewBox="0 0 151 56" fill="none" xmlns="http://www.w3.org/2000/svg">
<path d="M58.0669 11.7015H64.2474V36.6409H70.4279V5.46667H64.2474C60.8507 5.46667 58.0669 8.27493 58.0669 11.7015ZM76.6084 36.6667H82.7889V24.197C82.7889 20.7704 80.0051 17.9621 76.6084 17.9621V36.6667ZM88.9694 17.9621V36.6667H95.15V24.197H101.356V30.4318C101.356 33.8584 104.14 36.6667 107.537 36.6667V24.197C107.537 20.7704 104.753 17.9621 101.356 17.9621H88.9694ZM144.62 17.9621H138.439V11.7273C138.439 8.3007 135.655 5.49244 132.259 5.49244V30.4318H119.898V24.197H126.078V17.9621H119.898C116.501 17.9621 113.717 20.7704 113.717 24.197V30.4318C113.717 33.8584 116.501 36.6667 119.898 36.6667H138.439V24.197H144.62V30.4318C144.62 33.8584 147.403 36.6667 150.8 36.6667V24.197C150.826 20.7704 148.042 17.9621 144.62 17.9621ZM76.6084 11.7015H82.7889C82.7889 8.27493 80.0051 5.46667 76.6084 5.46667V11.7015Z" fill="black"/>
<path d="M68.4168 42.7549V46.1139H67.86L65.658 43.7884V46.1139H65V42.7549H65.5568L67.7588 45.1019V42.7549H68.4168ZM80.8945 46.1354H78.5154V42.7764H80.8439V43.3362H79.2241V44.176H80.6667V44.7358H79.2241V45.5971H80.8945V46.1354ZM90.9678 43.3147H92.2586V46.1354H92.9673V43.3147H94.258V42.7549H90.9425V43.3147H90.9678ZM109.267 42.7549H109.95L108.811 46.1139H108.153L107.191 43.6807L106.23 46.1139H105.572L104.382 42.7549H105.167L105.976 45.1665L106.862 42.7549H107.571L108.482 45.1665L109.267 42.7549ZM120.631 43.2501C120.251 43.5731 120.049 44.0037 120.049 44.4774C120.049 44.9942 120.251 45.4033 120.631 45.7263C121.036 46.0493 121.517 46.2 122.124 46.2C122.732 46.2 123.212 46.0277 123.617 45.7048C124.022 45.3818 124.225 44.9511 124.225 44.4559C124.225 43.9391 124.022 43.53 123.617 43.207C123.212 42.8841 122.732 42.7333 122.124 42.7333C121.517 42.7549 121.036 42.9271 120.631 43.2501ZM121.162 45.3387C120.909 45.1234 120.783 44.822 120.783 44.499C120.783 44.1545 120.909 43.8745 121.162 43.6377C121.415 43.4224 121.744 43.3147 122.124 43.3147C122.504 43.3147 122.833 43.4224 123.086 43.6377C123.339 43.853 123.465 44.1545 123.465 44.499C123.465 44.8435 123.339 45.1234 123.111 45.3387C122.858 45.554 122.554 45.6832 122.124 45.6832C121.744 45.6832 121.415 45.5756 121.162 45.3387ZM135.007 44.865V46.1354H134.298V42.7764C134.501 42.7764 134.703 42.7764 134.956 42.7764C135.184 42.7764 135.386 42.7764 135.538 42.7764C136.5 42.7764 136.981 43.1209 136.981 43.8099C136.981 44.0683 136.905 44.2836 136.753 44.4559C136.601 44.6066 136.424 44.7358 136.222 44.7789L137.487 46.1569H136.627L135.513 44.8865H135.007V44.865ZM135.488 43.3147C135.462 43.3147 135.437 43.3147 135.386 43.3147C135.336 43.3147 135.285 43.3147 135.209 43.3147H135.007V44.3267H135.462C135.69 44.3267 135.867 44.2837 136.019 44.1975C136.171 44.1114 136.247 43.9822 136.247 43.8099C136.247 43.4654 135.994 43.3147 135.488 43.3147ZM147.56 46.1354H148.269V44.3913L149.914 46.1354H150.8L149.054 44.3267L150.699 42.7549H149.864L148.294 44.3482V44.7549H147.586V46.1354H147.56Z" fill="#2F7AEA"/>
<path d="M12.5985 29.6397L13.9973 19.1757L1.7334 10.7799L12.9482 14.4977L15.5958 10.5091L25.2621 4.59998L46.5677 16.1719L47.6667 33.8253L38.1753 46.8007L30.6821 47.9333L34.5536 40.9409V34.1947L31.7312 28.9257L28.8588 27.0545L24.4378 31.5356V36.2629L20.9909 39.439L16.6199 39.956L14.6717 41.0394L11.4995 40.0299L10.2007 35.3765L12.5736 32.0772V29.6397H12.5985Z" fill="white"/>
<path d="M32.276 11.0284C29.8824 10.5575 27.2851 10.6814 27.2851 10.6814C27.2851 10.6814 26.4194 14.5233 21.1229 15.5395C21.1738 15.5395 28.1509 17.8446 32.276 11.0284ZM34.4404 45.9522C37.3178 43.771 39.4822 40.7471 40.4753 37.3266C40.5262 37.2026 40.9337 36.9796 41.1883 36.8061C41.6466 36.5334 42.0795 36.3351 42.1814 35.9633C42.3596 34.9471 42.4615 33.9061 42.4615 32.8651C42.4615 32.4685 42.0541 32.0719 41.6466 31.6753C41.3411 31.4027 41.0101 31.1052 41.0101 30.8822C40.5517 26.8916 38.6674 23.1737 35.6627 20.472L35.3571 20.7694C38.2854 23.4463 40.1698 27.0651 40.5772 30.9317C40.6281 31.2787 40.9846 31.6257 41.3411 31.9727C41.6466 32.2454 42.0031 32.6172 42.0031 32.8155C42.0031 33.8317 41.9013 34.8232 41.723 35.8394C41.6721 36.0129 41.2647 36.1864 40.9591 36.3599C40.5008 36.583 40.0934 36.8061 40.017 37.1531C38.9475 40.871 36.4775 44.118 33.1927 46.2C33.7784 44.9855 35.6118 40.9949 36.6048 38.9872L36.4266 32.518L30.7227 27.1394L27.4888 27.5856L23.9494 33.1873C23.9494 33.1873 25.6045 35.2445 23.2873 37.6488C20.9956 40.0035 19.1877 40.5488 19.1877 40.5488L17.5325 39.6813C18.0163 39.0616 19.0094 38.1445 19.7733 37.5249C21.072 36.4838 22.3706 36.3847 22.3706 35.2445C22.4216 32.8898 19.7988 33.5343 19.7988 33.5343L18.8566 34.4018L18.4492 37.6488L16.4631 40.053L16.2339 40.0035L13 39.3095C13 39.3095 14.9862 38.2932 15.2917 37.1531C15.5973 36.0625 14.6551 32.4189 14.6297 32.2206C14.6806 32.2702 15.5718 33.0138 15.9793 34.2283C16.6922 32.295 17.6344 30.4608 17.9145 30.2873C18.1946 30.1138 21.8359 28.23 21.8359 28.23L20.6136 31.3283L21.5049 30.8574L23.6693 25.7018C23.6693 25.7018 25.7828 24.6856 27.3615 24.6856C30.188 24.636 34.364 21.2651 32.4797 15.2421C33.0145 15.4652 42.3596 20.001 43.9893 28.9488C45.1861 35.7898 41.1883 42.2342 34.4404 45.9522Z" fill="#94A6C3"/>
<path d="M23.6792 11.7819C24.6919 10.5417 24.2967 8.73313 24.2967 8.73313L21.3575 13.2288C21.3328 13.2288 22.4195 13.2805 23.6792 11.7819ZM13.8737 36.4565L14.2195 34.6221C14.2195 34.6221 12.7869 37.2575 12.6387 37.645C12.5152 38.0584 12.7375 38.7819 13.2809 38.7302C13.849 38.6785 14.5405 37.8259 14.5405 37.1799C14.5652 36.3532 13.8737 36.4565 13.8737 36.4565ZM39.7583 7.44126C39.7583 7.44126 41.9318 7.54461 44.2041 7.80299C39.0914 3.61735 34.2504 2.37716 30.3479 2.37716C24.9388 2.37716 21.2834 4.70252 21.0611 4.8317L22.7653 2.01544C22.7653 2.01544 15.9731 1.34367 13.5526 8.86231C12.9351 7.2604 12.367 4.93505 12.367 4.93505C12.367 4.93505 8.83507 8.16471 10.4899 13.5647C6.43926 12.0145 0.634991 9.86997 0.4127 9.81829C0.116311 9.76662 0.0175152 9.92164 0.0175152 9.92164C0.0175152 9.92164 -0.0812812 10.0508 0.190408 10.2834C0.65969 10.6968 9.82303 17.7762 11.8237 19.1197C11.3791 20.7733 11.3791 21.5484 11.8237 22.3235C12.4411 23.3829 12.4658 23.9254 12.3917 24.7006C12.2929 25.4757 11.5273 32.1934 11.3544 32.9943C11.1815 33.8211 9.35375 36.7407 9.42785 37.5933C9.52664 38.4718 10.6381 42.1665 11.6508 42.5541C12.3917 42.8383 14.2195 43.4326 15.4544 43.4326C15.899 43.4326 16.2942 43.3292 16.4671 43.1484C17.208 42.4766 17.4303 42.3216 17.949 42.3216C17.9984 42.3216 18.0478 42.3216 18.0725 42.3216C18.2948 42.3216 18.5418 42.3732 18.8629 42.3732C19.5545 42.3732 20.4683 42.244 21.1352 41.5981C22.0985 40.5905 23.7533 39.2211 24.272 38.5752C24.9141 37.6967 25.2846 36.534 25.1117 35.3455C24.9882 34.2603 25.5563 33.3044 26.1985 32.3225C27.0383 31.1857 28.5449 29.1187 28.5449 29.1187C31.5582 31.4957 33.4353 35.0871 33.4353 39.1177C33.4353 46.223 27.5075 51.9847 20.1719 51.9847C19.0358 51.9847 17.949 51.8555 16.8623 51.5713C20.2213 52.8115 23.0617 53.2249 25.3587 53.2249C30.2738 53.2249 32.8919 51.3646 32.8919 51.3646C32.8919 51.3646 31.9781 52.6048 30.4961 54C30.5455 54 30.5455 54 30.5455 54C38.6962 52.8115 42.6728 45.7837 42.6728 45.7837C42.6728 45.7837 42.3764 48.0574 41.9812 49.6077C52.8488 41.0814 50.9963 30.4106 50.9716 30.0489C51.0704 30.178 52.1572 31.5474 52.7253 32.2967C54.4542 13.513 39.7583 7.44126 39.7583 7.44126ZM23.0617 37.4642C22.8888 37.6967 22.1479 38.3685 21.6292 38.8852C21.1105 39.3761 20.5424 39.8929 20.0978 40.3321C19.9249 40.513 19.5792 40.6163 19.0605 40.6163C18.8876 40.6163 18.7147 40.6163 18.5912 40.6163C18.4924 40.6163 18.4183 40.6163 18.3195 40.6163C18.2207 40.6163 18.196 40.6163 18.1466 40.6163C18.0231 40.6163 17.8749 40.6163 17.7514 40.6163C18.3936 39.712 20.3201 37.5933 20.987 37.1541C21.7774 36.6115 22.1726 36.0689 21.6786 35.113C21.2093 34.157 19.9249 34.3895 19.9249 34.3895C19.9249 34.3895 20.6659 34.0795 21.3081 34.0795C20.4683 33.8469 19.431 34.0795 18.9617 34.5704C18.443 35.0613 18.5171 36.8441 18.3195 37.9809C18.0972 39.1694 17.3562 39.7637 16.2201 40.8488C15.6026 41.4431 15.1827 41.624 14.8369 41.624C14.096 41.4948 13.2315 41.2622 12.614 41.0297C12.1694 40.4354 11.5273 38.4718 11.3544 37.645C11.4779 37.1799 11.9965 36.224 12.2682 35.6814C12.7869 34.6221 13.108 34.0278 13.1821 33.4852C13.355 32.7101 13.9231 27.9302 14.1454 25.9149C14.7134 26.69 15.5038 27.956 15.3309 28.7828C16.5906 26.9226 15.6767 25.0881 15.2321 24.3647C14.8369 23.6412 14.3183 22.1685 14.7628 20.6183C15.2074 19.068 16.7635 14.779 16.7635 14.779C16.7635 14.779 17.2821 15.735 18.0231 15.5542C18.7641 15.3733 24.7413 5.96854 24.7413 5.96854C24.7413 5.96854 26.3467 9.66327 24.6425 12.3503C22.8888 15.0374 21.2093 15.5542 21.2093 15.5542C21.2093 15.5542 23.6051 16.0192 25.828 14.314C26.7419 16.5618 27.6063 18.8872 27.6557 19.1972C27.5322 19.5073 25.7786 23.8996 25.6057 24.158C25.5069 24.2613 24.9141 24.4422 24.4696 24.5197C23.7286 24.7522 23.284 24.8814 23.1111 25.0106C22.8147 25.2948 21.4069 29.2996 20.7647 31.2632C19.9743 31.4958 19.184 31.935 18.6159 32.8651C18.9123 32.6326 19.8755 32.5034 20.5671 32.4001C21.1846 32.3484 23.0617 33.4077 23.531 35.3713C23.531 35.423 23.531 35.423 23.531 35.4747C23.6298 36.224 23.4075 36.9216 23.0617 37.4642ZM18.9617 38.0067C19.3569 37.4125 19.3075 36.4048 19.3569 36.0948C19.4063 35.7847 19.4804 35.1905 19.8261 35.0871C20.1719 34.9838 21.0117 35.1388 21.0117 35.7589C21.0117 36.3532 20.3942 36.4823 19.9743 36.8957C19.6779 37.2316 19.0605 37.9034 18.9617 38.0067ZM36.3745 29.2996C36.8191 26.9742 36.8438 24.9589 36.7203 23.3312C38.4245 25.7082 39.4619 28.5761 39.783 31.5474C39.8324 31.9091 40.1782 32.2709 40.5239 32.6326C40.8203 32.9168 41.1661 33.2785 41.1661 33.5111C41.1661 34.5704 41.0673 35.6039 40.8944 36.6632C40.845 36.7924 40.4498 37.0249 40.1535 37.2058C39.7089 37.4383 39.3137 37.6708 39.2396 38.0326C38.2763 41.5464 36.2263 44.6469 33.4847 46.8431C37.5354 42.3991 39.5113 35.0871 36.3745 29.2996ZM33.6329 47.2306C36.4733 44.957 38.6468 41.7531 39.6101 38.1618C39.6595 38.0326 40.0547 37.8 40.3016 37.6192C40.7462 37.3866 41.1661 37.1283 41.2649 36.7407C41.4378 35.6814 41.5366 34.5962 41.5366 33.5111C41.5366 33.0977 41.1414 32.6843 40.7462 32.2709C40.5239 31.9867 40.1781 31.6766 40.1781 31.4441C39.8324 28.1111 38.5727 24.9589 36.5968 22.3752C35.7323 16.8977 32.2251 15.2183 32.151 15.1666C32.2498 15.2958 34.4974 18.7321 32.9413 22.7369C31.3359 26.7934 27.1865 26.1474 26.8407 26.1991C26.4949 26.1991 25.1364 28.0336 23.4322 31.3924C23.2099 31.2891 22.296 31.0824 21.2587 31.2632C22.0491 28.9895 23.2099 25.734 23.4322 25.4757C23.531 25.3723 24.1732 25.1915 24.6178 25.0623C25.4575 24.8297 25.828 24.7006 25.9762 24.5197C26.075 24.3905 26.4949 23.3312 26.9395 22.246C27.3347 22.246 28.3226 22.1427 28.4214 22.1168C28.5202 22.0135 29.3353 19.7915 29.3353 19.5073C29.3353 19.2747 27.631 14.8566 26.9889 13.1771C27.2853 12.8154 27.6063 12.3503 27.9027 11.8594C36.8438 12.8671 43.8089 20.7991 43.8089 30.4364C43.7842 37.7742 39.6348 44.2077 33.6329 47.2306ZM22.0244 22.5819C22.8641 21.5742 22.4195 19.714 20.8882 19.3781C21.2834 18.4221 21.8515 16.5101 21.8515 16.5101C21.8515 16.5101 17.4056 23.7962 17.0105 23.9513C16.6153 24.0805 16.2201 22.5044 16.2201 22.5044C15.3803 25.8374 17.6032 26.3025 17.8749 25.2431C19.1099 24.9072 21.1846 23.5379 22.0244 22.5819Z" fill="#1B314F"/>
<path d="M17.3335 23.6667L19.8715 20.2C19.8715 20.2 21.3335 20.7741 20.5887 21.7236C19.6783 22.8055 17.3335 23.6667 17.3335 23.6667Z" fill="#FFD923"/>
<path d="M46.6635 42.5922C46.009 43.4805 45.2538 44.4196 44.3476 45.3333C50.0869 34.2163 44.6245 24.0384 44.398 23.6577C44.8007 24.0638 45.2035 24.5206 45.5559 24.9014C49.961 29.8 50.4896 37.2113 46.6635 42.5922ZM51.9999 28.2771C50.0113 22.8455 47.1669 18.2515 40.8991 14.0635C34.8578 10.0279 28.3634 10.3325 28.011 10.3832C27.9606 10.3832 27.9103 10.3832 27.9103 10.3832C28.1368 10.2817 28.3634 10.2563 28.5648 10.2056C29.9492 9.74871 31.7113 9.39337 33.4985 9.16494C38.2057 8.50503 42.9632 10.104 46.2104 13.5559C46.2607 13.6067 46.2607 13.6067 46.3111 13.6574C50.0113 17.6169 51.9244 22.5409 51.9999 28.2771ZM39.4643 6.0938C32.844 4.85011 28.5648 5.45927 25.5189 6.62681C25.4183 6.27147 25.1162 5.56079 24.8645 4.97702C23.9331 6.0938 22.9514 7.43901 22.3221 8.30198C20.6356 9.46952 19.9308 10.5863 19.9308 10.5863C20.9125 7.23596 23.7569 4.72321 27.2306 4.08867C28.2124 3.91101 29.2696 3.80948 30.4275 3.80948C33.4733 3.86024 36.5443 4.62168 39.4643 6.0938ZM14.997 14.6981C9.78642 14.5204 11.5233 8.42888 11.624 8.07354C11.624 8.12431 11.9764 12.8706 14.997 14.6981ZM20.107 3.73334C16.1046 6.14456 16.9101 11.9315 16.9101 11.9315C13.084 6.06842 19.7797 3.86024 20.107 3.73334Z" fill="#D82122"/>
<path d="M13.4942 15.5406C13.7779 15.7284 14.0358 16.0622 13.7263 16.542C13.5458 16.7924 13.2621 16.7715 12.8495 16.6255C12.3079 16.396 9.03267 14.8522 6.06689 13.2667C9.4453 14.2263 12.8495 15.2486 13.3911 15.4781C13.3911 15.4572 13.4427 15.4989 13.4942 15.5406Z" fill="white"/>
</svg>
