<svg width="109" height="56" viewBox="0 0 109 56" fill="none" xmlns="http://www.w3.org/2000/svg">
<path d="M87.2379 5.04394H70.8567L70.8804 12.5831C63.9491 4.52769 54.7093 5.00537 54.7093 5.00537H30.7664L4 50.9255H22.009L27.5404 41.2204L38.0528 41.2086V50.9729L54.3482 50.9996C54.3482 50.9996 63.7626 51.1836 70.8212 43.3507L70.8094 50.9284H86.1666L86.1784 41.262H87.7677C93.9946 41.7397 104.711 35.2835 104.664 22.7776C104.631 12.408 96.7234 5.04394 87.2379 5.04394ZM86.2021 35.7167L80.209 35.7315L80.1971 45.4158L76.4059 45.4247V35.7078H69.6995C69.6995 35.7078 66.0681 45.0479 53.9132 45.3772L44.0371 45.4276V35.6662L24.2671 35.6633L18.4841 45.4098H13.959L33.942 10.9868H53.8303C66.3582 11.058 70.5608 21.6531 71.126 25.6022H76.4089L76.4148 10.8859L86.6105 10.8889C94.3439 11.2657 98.8543 17.7575 98.9874 22.1457C99.2035 29.0647 94.3646 35.3962 86.2021 35.7167Z" fill="#CF4037"/>
<path d="M47.9407 14.9127L47.9467 20.6064H53.0519C63.1085 20.5797 63.1145 35.6431 52.7826 35.6134H47.9437V41.316H52.8181C60.6373 41.3575 66.7518 36.005 66.7399 27.6411C66.734 22.44 62.3124 14.9098 53.7267 14.9098L47.9407 14.9127ZM80.422 14.9543V20.6628H85.9416C89.502 20.8378 89.573 26.0004 85.9771 25.9796H80.4516V31.7415C80.4516 31.7415 85.2373 31.7712 85.6782 31.7415C90.3307 31.7267 94.5037 28.4986 94.5037 23.0185C94.5037 17.5919 90.2212 14.9572 85.6782 14.9572C86.4684 14.9543 80.422 14.9543 80.422 14.9543ZM38.3073 14.8415L44.0311 14.8297V31.7682H26.7295L30.0531 25.9588L38.2925 25.9915L38.3073 14.8415ZM94.5392 45.8287C94.7949 46.0782 94.9972 46.3775 95.1336 46.708C95.27 47.0386 95.3376 47.3937 95.3324 47.7514C95.3324 48.5139 95.066 49.1577 94.5392 49.6888C94.2922 49.9482 93.9942 50.1536 93.6642 50.292C93.3341 50.4303 92.9791 50.4987 92.6214 50.4929C92.2635 50.4998 91.9082 50.4319 91.5779 50.2935C91.2477 50.155 90.9499 49.9491 90.7036 49.6888C90.4478 49.4365 90.246 49.1346 90.1107 48.8015C89.9753 48.4683 89.9092 48.111 89.9163 47.7514C89.9163 46.9977 90.1827 46.3569 90.7095 45.8287C90.9554 45.5695 91.2523 45.3642 91.5814 45.2258C91.9104 45.0874 92.2646 45.0189 92.6214 45.0247C93.3642 45.0247 94.0124 45.2917 94.5392 45.8287ZM94.8499 45.5202C94.2373 44.903 93.4915 44.5974 92.6184 44.5974C91.7454 44.5974 91.0055 44.903 90.3928 45.5202C90.0963 45.8099 89.8617 46.1572 89.7035 46.5408C89.5453 46.9244 89.4666 47.3363 89.4724 47.7514C89.4724 48.6355 89.7743 49.3802 90.3869 50.0003C90.9995 50.6204 91.7454 50.926 92.6184 50.926C93.4915 50.926 94.2373 50.6175 94.8499 50.0003C95.4685 49.3773 95.7733 48.6326 95.7733 47.7514C95.7817 47.3357 95.704 46.9227 95.5451 46.5387C95.3861 46.1546 95.1494 45.8078 94.8499 45.5202ZM93.089 47.606C92.903 47.6669 92.7073 47.693 92.5119 47.6831H91.9614V46.4251H92.4764C93.1541 46.4251 93.4412 46.5527 93.4412 47.063C93.4412 47.333 93.3258 47.514 93.089 47.606ZM91.3488 49.4781H91.9614V48.1074H92.4408C92.7634 48.1074 92.9854 48.1519 93.1186 48.2201C93.3376 48.3507 93.4412 48.6207 93.4412 49.0212V49.2972L93.4589 49.4099L93.4649 49.4485C93.4708 49.4574 93.4708 49.4692 93.4708 49.4811H94.0479L94.0242 49.4396C94.0063 49.3808 93.9964 49.32 93.9946 49.2586C93.9828 49.1666 93.9828 49.0776 93.9828 49.0005V48.7423C93.9783 48.5254 93.8964 48.3172 93.752 48.1556C93.6076 47.9939 93.4102 47.8895 93.1955 47.8611C93.8082 47.7751 94.039 47.4903 94.039 47.0096C94.039 46.5764 93.8585 46.2857 93.5004 46.1344C93.197 46.0348 92.8781 45.9916 92.5592 46.0068H91.3458L91.3488 49.4781Z" fill="#CF4037"/>
</svg>
