<svg width="111" height="34" viewBox="0 0 111 34" fill="none" xmlns="http://www.w3.org/2000/svg">
<path fill-rule="evenodd" clip-rule="evenodd" d="M97.2547 18.9581H100.668H100.671C101.028 18.9646 101.325 18.687 101.338 18.334V8.97207C101.338 7.79623 101.402 6.73418 101.881 5.67232C102.21 4.86467 102.984 4.32081 103.863 4.28058C106.047 4.28058 106.026 6.64797 106.009 8.5079C106.008 8.66479 106.006 8.81805 106.006 8.96594V18.4119C106.049 18.715 106.304 18.9449 106.613 18.9581H110.057C110.383 18.9648 110.664 18.7313 110.714 18.4119V7.46615C110.714 5.78342 110.714 3.44055 109.82 2.04882C108.853 0.549033 107.356 0 105.822 0C103.457 0 102.114 1.13389 101.156 3.51258H101.09V0.851901C101.02 0.573745 100.773 0.375089 100.483 0.365894H97.3063C96.9706 0.357848 96.6847 0.605546 96.6486 0.935809V18.334C96.6529 18.6675 96.918 18.9405 97.2547 18.9581ZM94.0416 9.83297C94.0416 4.3436 91.292 0.0239474 86.2084 0.0239474C81.2549 0.0239474 78.5054 4.27157 78.5054 9.65002C78.5054 15.0283 81.2215 19.3479 86.2084 19.3479C91.0102 19.3479 94.0416 15.1394 94.0416 9.83297ZM83.5558 9.10099C83.5558 6.97727 83.7163 3.57561 86.2416 3.57561C87.3268 3.57561 88.0939 4.05855 88.4788 5.25834C88.9274 6.6472 88.9911 8.40503 88.9911 9.86898C88.9911 12.1006 88.891 15.7603 86.2082 15.7603C83.5546 15.7603 83.5554 11.3232 83.5558 9.1713V9.10099ZM19.5014 18.9941H22.9238H22.927C23.0986 18.9979 23.2651 18.934 23.389 18.8163C23.513 18.6987 23.5845 18.5368 23.5877 18.3669V9.14889V9.00463C23.5863 7.00026 23.5844 4.34954 25.9523 4.34954C28.1412 4.34954 28.1074 6.67862 28.0801 8.55943C28.0772 8.76211 28.0742 8.96 28.0742 9.14889V18.37C28.0801 18.7029 28.3445 18.975 28.6806 18.9941H32.1121C32.2833 18.997 32.449 18.9328 32.5724 18.8152C32.6958 18.6976 32.7667 18.5365 32.7701 18.3669V9.14889L32.7697 8.92973C32.7677 7.95312 32.7648 6.63513 33.0914 5.81637C33.4243 4.97922 34.229 4.41889 35.1376 4.3915C36.1289 4.3915 36.8958 4.72137 37.1504 5.89128C37.2805 6.45429 37.2635 7.75963 37.2524 8.62514C37.2499 8.82935 37.2475 9.00923 37.2475 9.14889V18.37C37.2518 18.7035 37.517 18.9765 37.8537 18.9941H41.2763C41.4481 18.9979 41.6144 18.934 41.7384 18.8163C41.8623 18.6987 41.9339 18.5368 41.937 18.3669V7.39106C41.937 7.12363 41.9418 6.85026 41.9465 6.57402C41.9746 4.93516 42.0043 3.19037 41.0731 1.9377C39.9444 0.51704 38.1291 -0.190992 36.324 0.0856319C34.5192 0.362255 33.0054 1.58043 32.3638 3.27255C31.4028 1.07393 30.0295 0.0509567 27.9196 0.0509567C25.8097 0.0509567 24.2425 1.07393 23.412 3.27255H23.3483V1.0019C23.3303 0.678151 23.0691 0.419726 22.7419 0.40191H19.5498C19.1973 0.398462 18.9067 0.674125 18.895 1.02278V18.4209C18.926 18.734 19.1838 18.9776 19.5014 18.9941ZM13.5445 19.1259C13.3191 19.3194 12.9951 19.3518 12.7351 19.2069C11.7652 18.4083 11.4728 17.9767 11.0236 17.3139C10.9465 17.1997 10.8644 17.079 10.7737 16.9482C8.89116 18.8439 7.56041 19.411 5.12618 19.411C2.24327 19.411 0 17.6501 0 14.1285C0 11.3778 1.51572 9.50903 3.63774 8.59104C5.20467 7.91078 7.29529 7.69948 9.1029 7.51692C9.439 7.48301 9.76521 7.45006 10.0766 7.4152V6.97727C10.0766 6.89375 10.0772 6.8085 10.078 6.72211C10.0839 5.97538 10.0906 5.14397 9.66122 4.51755C9.24288 3.89361 8.4487 3.63864 7.73934 3.63864C6.43271 3.63864 5.26866 4.30165 4.98371 5.67251C4.94759 5.99223 4.69892 6.24817 4.37741 6.29644L1.08526 5.93936C0.920986 5.91618 0.773518 5.82729 0.677295 5.69339C0.581053 5.55967 0.544418 5.39263 0.575972 5.23152C1.33688 1.24787 4.97462 0.0450192 8.2334 0.0450192C9.90064 0.0450192 12.0774 0.482941 13.387 1.73081C14.9243 3.15512 14.9146 5.01965 14.9043 7.05716C14.9035 7.22536 14.9026 7.3947 14.9026 7.5652V12.8415C14.9026 14.2626 15.4354 14.9695 15.9967 15.7141C16.0633 15.8026 16.1305 15.8915 16.1971 15.9823C16.4154 16.2823 16.4638 16.6572 16.1971 16.8821C15.4969 17.4612 14.2539 18.529 13.5718 19.1319L13.5445 19.1259ZM10.0916 10.8648L10.0918 11.0291C10.093 12.2768 10.094 13.3348 9.45205 14.4643C8.90638 15.4183 8.04242 16.0062 7.07841 16.0062C5.76575 16.0062 4.9988 15.0164 4.9988 13.5465C4.9988 10.6607 7.61498 10.1358 10.0916 10.1358V10.8648ZM60.8801 15.7016C60.9469 15.7901 61.0139 15.8794 61.0808 15.9702C61.3111 16.2823 61.3595 16.6482 61.0655 16.8551C60.3653 17.434 59.1225 18.5049 58.4404 19.1048C58.2135 19.2956 57.8906 19.3269 57.631 19.1828C56.6567 18.3809 56.3683 17.9556 55.9128 17.284L55.9116 17.2823C55.8359 17.1706 55.7554 17.0522 55.6666 16.924C53.7871 18.82 52.4472 19.3868 50.022 19.3868C47.139 19.3868 44.8959 17.6261 44.8959 14.1074C44.8959 11.3538 46.4024 9.48489 48.5487 8.56709C50.119 7.88415 52.2214 7.67381 54.0342 7.49259C54.3628 7.45964 54.6828 7.42784 54.9875 7.39413V6.96521C54.9875 6.88207 54.9881 6.7972 54.9889 6.71138C54.9948 5.96446 55.0015 5.13267 54.5692 4.50854C54.1629 3.88461 53.3535 3.62657 52.6473 3.62657C51.3407 3.62657 50.1827 4.28958 49.8946 5.66044C49.8575 5.97978 49.6094 6.23514 49.2883 6.28437L45.969 5.93036C45.8036 5.90794 45.6547 5.81887 45.5578 5.68439C45.4607 5.54971 45.4242 5.38152 45.4566 5.21945C46.2205 1.23293 49.8583 0.0329505 53.117 0.0329505C54.7813 0.0329505 56.958 0.470872 58.2706 1.71874C59.8111 3.13577 59.8002 4.98574 59.7884 7.01291C59.7874 7.19107 59.7864 7.37248 59.7864 7.55313V12.8325C59.7864 14.2507 60.319 14.9572 60.8801 15.7016ZM51.9802 15.9882C52.9413 15.9882 53.8082 15.4003 54.3509 14.4494C54.995 13.3136 54.9944 12.2506 54.9936 10.9872V10.8527V10.1209C52.5168 10.1209 49.9008 10.6427 49.9008 13.5314C49.9008 14.9982 50.6677 15.9882 51.9802 15.9882ZM63.9787 0.962818V3.44055C63.9769 3.61047 64.0455 3.77388 64.1687 3.89227C64.2919 4.01066 64.4587 4.07407 64.6303 4.06756H70.5235L63.7664 13.6664C63.458 14.1814 63.3123 14.7758 63.348 15.3733V17.9079C63.348 18.274 63.7573 18.6909 64.1483 18.484C67.8753 16.5717 72.307 16.5639 76.0408 18.4629C76.4683 18.6819 76.8714 18.2589 76.8714 17.893V15.2292C76.8599 14.822 76.6284 14.452 76.265 14.2603C74.2977 13.1655 72.0089 12.8446 69.8444 12.8956L75.6771 4.65835C76.2196 3.92043 76.5229 3.45262 76.5229 3.09554V0.962818C76.5244 0.793472 76.4562 0.630642 76.3337 0.512253C76.2113 0.393864 76.0452 0.330262 75.874 0.336009H64.6183C64.4469 0.326431 64.2796 0.389264 64.1576 0.50861C64.0357 0.628148 63.9706 0.793281 63.9787 0.962818Z" fill="black"/>
<path fill-rule="evenodd" clip-rule="evenodd" d="M79.6558 30.9506C80.4222 29.0706 82.1276 24.8575 81.3167 23.8365H81.3225C80.5151 22.8135 75.9828 23.3505 73.9441 23.5919L73.9398 23.5925C73.3196 23.6659 73.2242 23.1335 73.7817 22.7481C77.4016 20.2384 83.3323 20.9564 84.0211 21.8036C84.7098 22.651 83.8332 28.5175 80.443 31.3183C79.9212 31.7479 79.4232 31.5184 79.6558 30.9506ZM55.2979 33.8515C63.1818 33.8515 72.3625 31.395 78.6866 26.7906V26.7994C79.7332 26.0226 78.8357 24.8812 77.7683 25.3284C70.8651 28.2014 63.455 29.7012 55.963 29.7414C45.5686 29.7414 35.5142 26.9288 27.38 22.2598C26.6675 21.8507 26.1366 22.5717 26.7331 23.0981C34.564 30.0696 44.7509 33.9046 55.2979 33.8515Z" fill="#FF9900"/>
</svg>
