<svg width="59" height="56" viewBox="0 0 59 56" fill="none" xmlns="http://www.w3.org/2000/svg">
<path d="M46.8548 47.497C44.6825 50.7208 42.3793 53.8666 38.8722 53.9185C35.3651 53.9965 34.2397 51.8647 30.2614 51.8647C26.257 51.8647 25.0269 53.8666 21.7029 53.9965C18.2743 54.1265 15.6832 50.5648 13.4847 47.419C9.00919 40.9974 5.58058 29.1682 10.187 21.2127C12.464 17.261 16.5469 14.7652 20.9701 14.6872C24.3202 14.6352 27.5133 16.949 29.5809 16.949C31.6224 16.949 35.4959 14.1672 39.5527 14.5832C41.2539 14.6612 46.0173 15.2591 49.0795 19.7308C48.844 19.8868 43.4001 23.0586 43.4524 29.6362C43.5309 37.4876 50.3881 40.1135 50.4667 40.1395C50.3881 40.3215 49.3674 43.8832 46.8548 47.497ZM31.9103 5.89974C33.8209 3.74188 36.9878 2.10399 39.605 2C39.9453 5.0418 38.7152 8.10959 36.8831 10.2934C35.0772 12.5033 32.0935 14.2192 29.1622 13.9852C28.7696 10.9954 30.2352 7.87561 31.9103 5.89974Z" fill="black"/>
</svg>
