<svg width="135" height="56" viewBox="0 0 135 56" fill="none" xmlns="http://www.w3.org/2000/svg">
<g clip-path="url(#clip0_2392_12423)">
<path d="M132.439 41.9004C132.086 41.9003 131.741 41.7967 131.448 41.6026C131.155 41.4084 130.927 41.1326 130.792 40.8099C130.657 40.4872 130.622 40.1321 130.691 39.7896C130.759 39.447 130.929 39.1324 131.178 38.8854C131.428 38.6384 131.745 38.4702 132.091 38.4021C132.437 38.3339 132.795 38.3688 133.121 38.5024C133.447 38.6361 133.725 38.8624 133.921 39.1527C134.117 39.4431 134.222 39.7845 134.222 40.1337C134.221 40.6021 134.033 41.0511 133.699 41.3823C133.365 41.7135 132.911 41.8998 132.439 41.9004ZM132.439 38.6411C132.14 38.6412 131.849 38.7289 131.601 38.893C131.353 39.0572 131.16 39.2905 131.046 39.5634C130.932 39.8362 130.903 40.1365 130.961 40.4261C131.019 40.7157 131.163 40.9818 131.374 41.1905C131.585 41.3993 131.853 41.5414 132.146 41.5989C132.438 41.6564 132.741 41.6267 133.016 41.5136C133.292 41.4005 133.527 41.209 133.693 40.9634C133.858 40.7178 133.947 40.4291 133.946 40.1337C133.946 39.7378 133.787 39.3583 133.504 39.0784C133.222 38.7985 132.838 38.6413 132.439 38.6411Z" fill="#004185"/>
<path d="M131.803 39.2321H132.607C132.797 39.2217 132.984 39.2862 133.127 39.4116C133.177 39.4628 133.215 39.5231 133.241 39.5892C133.267 39.6552 133.279 39.7256 133.277 39.7963V39.8017C133.281 39.9273 133.24 40.0502 133.162 40.1491C133.084 40.2481 132.973 40.3168 132.849 40.3433L133.336 41.0192H132.96L132.517 40.397H132.12V41.0192H131.803V39.2321ZM132.584 40.1187C132.811 40.1187 132.955 40.0005 132.955 39.82V39.8146C132.955 39.6233 132.815 39.518 132.581 39.518H132.12V40.1187H132.584Z" fill="#004185"/>
<path d="M0.00537109 38.3682H13.2044V41.7607H3.83008V45.2772H12.0795V48.6699H3.83008V52.31H13.3294V55.7028H0.00537109V38.3682Z" fill="#004185"/>
<path d="M16.1606 38.3682H20.3103L24.91 45.6982L29.5098 38.3682H33.6594V55.7028H29.8347V44.3856L24.91 51.7902H24.8099L19.9353 44.4601V55.7028H16.1606V38.3682Z" fill="#004185"/>
<path d="M37.1631 38.3682H44.3126C48.4873 38.3682 51.0122 40.8197 51.0122 44.361V44.4105C51.0122 48.4223 47.8624 50.5025 43.9376 50.5025H41.0127V55.7028H37.1631V38.3682ZM44.0626 47.1097C44.4409 47.1572 44.8251 47.125 45.19 47.0153C45.555 46.9056 45.8924 46.7208 46.1803 46.4731C46.4682 46.2253 46.7 45.9201 46.8607 45.5775C47.0213 45.2349 47.1071 44.8625 47.1126 44.4848V44.4352C47.1126 42.7265 45.9125 41.8102 43.9877 41.8102H41.0127V47.1097H44.0626Z" fill="#004185"/>
<path d="M52.3208 47.085V47.0355C52.3868 44.6399 53.3921 42.3639 55.1237 40.6903C56.8552 39.0167 59.1767 38.077 61.5959 38.0706C64.0151 38.0641 66.3416 38.9914 68.0822 40.6558C69.8228 42.3201 70.8405 44.5907 70.9195 46.9859V47.0355C70.8535 49.4311 69.8482 51.707 68.1167 53.3807C66.3851 55.0543 64.0636 55.994 61.6444 56.0004C59.2253 56.0068 56.8987 55.0796 55.1581 53.4152C53.4175 51.7508 52.3998 49.4803 52.3208 47.085ZM66.8949 47.085V47.0355C66.9194 46.3301 66.8006 45.6271 66.5455 44.9681C66.2904 44.3091 65.9042 43.7076 65.4098 43.1994C64.9154 42.6912 64.323 42.2866 63.6676 42.0096C63.0123 41.7327 62.3075 41.5891 61.595 41.5873C60.8878 41.5845 60.1874 41.7238 59.536 41.9966C58.8846 42.2695 58.2958 42.6703 57.8052 43.1749C57.3146 43.6795 56.9323 44.2773 56.6814 44.9323C56.4305 45.5873 56.3162 46.2859 56.3454 46.9859V47.0355C56.3209 47.7408 56.4397 48.4438 56.6948 49.1028C56.9499 49.7618 57.3361 50.3632 57.8304 50.8714C58.3248 51.3796 58.9172 51.7842 59.5725 52.0611C60.2278 52.338 60.9326 52.4817 61.645 52.4835C62.3523 52.4863 63.0527 52.347 63.7041 52.0742C64.3555 51.8013 64.9443 51.4006 65.4349 50.896C65.9256 50.3915 66.3079 49.7936 66.5588 49.1386C66.8098 48.4836 66.9241 47.785 66.8949 47.085Z" fill="#004185"/>
<path d="M71.1533 38.3682H75.278L78.9028 49.9823L82.8276 38.3681H86.1272L90.052 49.9823L93.6768 38.3682H97.7014L91.7269 55.7028H88.3772L84.4275 44.5343L80.4776 55.7028H77.1279L71.1533 38.3682Z" fill="#004185"/>
<path d="M99.4668 38.3682H112.666V41.7607H103.292V45.2772H111.541V48.6699H103.292V52.31H112.791V55.7028H99.4668V38.3682Z" fill="#004185"/>
<path d="M115.623 38.3681H123.622C124.547 38.3106 125.475 38.4365 126.351 38.7383C127.226 39.0402 128.032 39.512 128.722 40.1262C129.226 40.6539 129.619 41.2764 129.876 41.9569C130.134 42.6374 130.252 43.3622 130.222 44.0884V44.138C130.278 45.317 129.941 46.4817 129.264 47.4527C128.586 48.4237 127.605 49.1472 126.472 49.5117L130.747 55.7028H126.247L122.497 50.1557H119.472V55.7028H115.623L115.623 38.3681ZM123.372 46.7878C125.247 46.7878 126.322 45.7971 126.322 44.3363V44.2867C126.322 42.6522 125.172 41.8102 123.297 41.8102H119.472V46.7878L123.372 46.7878Z" fill="#004185"/>
<path d="M130.72 4.63682C104.176 10.836 104.388 -2.20352 81.8977 0.54163L70.3804 5.84133C94.0524 1.67733 94.5523 17.6272 126.541 8.65758C127.999 8.24897 129.381 7.85549 130.72 7.51729V4.63682Z" fill="#DB1830"/>
<path d="M130.72 10.8045C126.01 11.3844 121.353 12.3226 116.788 13.6109C83.116 22.9853 84.0221 7.47158 59.1606 11.0356L47.6621 16.3353C71.9923 13.079 72.9922 28.1566 106.057 19.1515C116.836 16.2158 124.473 15.401 130.72 15.7762L130.72 10.8045Z" fill="#DB1830"/>
<path d="M130.72 22.3356C122.503 20.5031 112.979 19.4151 95.7228 24.1048C61.5565 33.3901 62.1002 18.1879 36.4618 21.5296L24.9653 26.8293C49.808 23.6707 51.0578 38.5614 84.7595 29.6455C109.753 23.0334 118.377 27.847 130.72 30.3889L130.72 22.3356Z" fill="#DB1830"/>
</g>
<defs>
<clipPath id="clip0_2392_12423">
<rect width="134.222" height="56" fill="white"/>
</clipPath>
</defs>
</svg>
