<?xml version="1.0" encoding="utf-8"?>
<!-- Generator: Adobe Illustrator 12.0.0, SVG Export Plug-In . SVG Version: 6.00 Build 51448)  -->
<!DOCTYPE svg PUBLIC "-//W3C//DTD SVG 1.1//EN" "http://www.w3.org/Graphics/SVG/1.1/DTD/svg11.dtd" [
	<!ENTITY ns_svg "http://www.w3.org/2000/svg">
	<!ENTITY ns_xlink "http://www.w3.org/1999/xlink">
]>
<svg  version="1.1" id="Layer_1" xmlns="&ns_svg;" xmlns:xlink="&ns_xlink;" width="626.172" height="135.109"
	 viewBox="0 0 626.172 135.109" overflow="visible" enable-background="new 0 0 626.172 135.109" xml:space="preserve">
<polygon fill="#005DAA" points="600.965,2.128 596.336,2.128 596.336,0.257 607.719,0.257 607.719,2.128 603.098,2.128 
	603.098,15.104 600.965,15.104 "/>
<polygon fill="#005DAA" points="609.867,0.257 613.391,0.257 618.074,12.572 622.66,0.257 626.172,0.257 626.172,15.104 
	624.039,15.104 624.039,2.261 624.004,2.261 619.082,15.104 616.969,15.104 612.055,2.261 612.012,2.261 612.012,15.104 
	609.867,15.104 "/>
<rect x="93.112" fill="#005DAA" width="21.205" height="79.25"/>
<path fill="#005DAA" d="M239.629,0.066h26.012l30.688,79.636h-23.27l-5.938-16.99h-29.89l-6.284,16.99h-21.562L239.629,0.066
	 M252.631,16.493h-0.222l-10.275,31.151h19.967L252.631,16.493"/>
<path fill="#005DAA" d="M306.656,0.057h36.634c14.824,0,25.898,6.497,25.898,20.188c0,10.056-5.133,15.652-14.029,18.608v0.223
	c10.595,2.182,16.083,7.881,16.083,17.591c0,19.052-16.773,23.035-31.031,23.035h-33.555V0.057 M327.872,64.659h6.292
	c7.755,0,15.853-1.154,15.853-9.248c0-8.684-8.328-9.47-15.621-9.47h-6.523V64.659 M327.872,31.559h5.939
	c6.965,0,14.144-1.713,14.144-8.449c0-7.307-6.834-7.975-13.905-7.975h-6.178V31.559"/>
<polyline fill="#005DAA" points="399.972,49.703 370.543,0.057 394.953,0.057 410.591,32.009 425.993,0.057 450.421,0.057 
	421.196,49.703 421.196,79.702 399.972,79.702 399.972,49.703 "/>
<polyline fill="#005DAA" points="478.77,15.803 459.156,15.803 459.156,0.057 519.625,0.057 519.625,15.803 500.012,15.803 
	500.012,79.702 478.77,79.702 478.77,15.803 "/>
<polyline fill="#005DAA" points="529.727,0.057 585.867,0.057 585.867,15.135 550.941,15.135 550.941,31.559 583.918,31.559 
	583.918,46.616 550.941,46.616 550.941,64.659 587.113,64.659 587.113,79.702 529.727,79.702 529.727,0.057 "/>
<path fill="#005DAA" d="M44.919,17.493C30.802,18.667,23.093,27.935,23.093,39.93c0,11.661,10.806,21.465,21.241,21.465l2.293-0.023
	h3.858c0,0,2.559,0,2.576-2.494v-25.03h21.791c0,14.129-0.053,45.855-0.053,45.855s-21.509-0.019-33.996-0.019
	c-23.482,0-40.236-19.399-40.236-39.754c0-22.016,18.224-40.403,40.917-39.589l32.598,0.103l-0.017,17.05H44.919"/>
<path fill="#005DAA" d="M171.026,17.493c-14.126,1.174-21.818,10.441-21.818,22.437c0,11.661,10.789,21.465,21.233,21.465
	l2.284-0.023h3.867c0,0,2.54,0,2.558-2.494v-25.03h21.756c0,14.129-0.035,45.855-0.035,45.855s-21.49-0.019-33.97-0.019
	c-23.473,0-40.209-19.399-40.209-39.754c0-22.016,18.206-40.403,40.908-39.589l32.544,0.103l-0.008,17.05H171.026"/>
<polyline fill="#005DAA" points="7.913,111.354 0,111.354 0,107.016 21.375,107.016 21.375,111.354 13.454,111.354 13.454,134.631 
	7.913,134.631 7.913,111.354 "/>
<polyline fill="#005DAA" points="61.266,107.016 77.596,107.016 77.596,111.354 66.825,111.354 66.825,118.168 76.676,118.168 
	76.676,122.521 66.825,122.521 66.825,130.275 77.667,130.275 77.667,134.631 61.266,134.631 61.266,107.016 "/>
<path fill="#005DAA" d="M139.737,134.24c-2.018,0.479-4.204,0.869-6.292,0.869c-8.939,0-15.162-4.479-15.162-13.826
	c0-9.453,5.789-14.764,15.162-14.764c1.822,0,4.23,0.371,6.257,1.135l-0.406,4.689c-2.081-1.203-3.992-1.469-5.983-1.469
	c-5.683,0-9.24,4.373-9.24,10.02c0,5.629,3.479,9.859,9.373,9.859c2.169,0,4.753-0.479,6.053-1.152L139.737,134.24"/>
<polyline fill="#005DAA" points="180.168,107.016 185.7,107.016 185.7,118.168 196.781,118.168 196.781,107.016 202.323,107.016 
	202.323,134.631 196.781,134.631 196.781,122.521 185.7,122.521 185.7,134.631 180.168,134.631 180.168,107.016 "/>
<polyline fill="#005DAA" points="244.807,107.016 251.622,107.016 262.146,127.674 262.226,127.674 262.226,107.016 
	267.536,107.016 267.536,134.631 260.765,134.631 250.188,113.973 250.117,113.973 250.117,134.631 244.807,134.631 
	244.807,107.016 "/>
<path fill="#005DAA" d="M322.207,106.52c8.665,0,13.542,5.859,13.542,14.215s-4.788,14.375-13.542,14.375
	c-8.868,0-13.532-5.896-13.532-14.375C308.675,112.271,313.418,106.52,322.207,106.52 M322.207,130.754
	c5.647,0,7.763-5.01,7.763-10.02c0-4.869-2.258-9.859-7.763-9.859c-5.496,0-7.762,4.99-7.762,9.859
	C314.445,125.744,316.552,130.754,322.207,130.754"/>
<polyline fill="#005DAA" points="377.154,107.016 382.704,107.016 382.704,130.275 393.43,130.275 393.43,134.631 377.154,134.631 
	377.154,107.016 "/>
<path fill="#005DAA" d="M445.499,106.52c8.669,0,13.524,5.859,13.524,14.215s-4.789,14.375-13.524,14.375
	c-8.885,0-13.539-5.896-13.539-14.375C431.96,112.271,436.694,106.52,445.499,106.52 M445.499,130.754
	c5.656,0,7.755-5.01,7.755-10.02c0-4.869-2.267-9.859-7.755-9.859c-5.506,0-7.779,4.99-7.779,9.859
	C437.72,125.744,439.825,130.754,445.499,130.754"/>
<path fill="#005DAA" d="M522.016,112.344c-2.141-0.99-4.902-1.469-7.125-1.469c-6.461,0-10.02,4.373-10.02,10.02
	c0,5.629,3.488,9.859,9.383,9.859c1.504,0,2.691-0.16,3.648-0.389v-7.223h-5.863v-4.338h11.164v14.889
	c-2.93,0.795-5.977,1.416-8.949,1.416c-8.941,0-15.164-4.479-15.164-13.826c0-9.453,5.781-14.764,15.164-14.764
	c3.203,0,5.754,0.441,8.109,1.135L522.016,112.344"/>
<polyline fill="#005DAA" points="572.688,123.709 562.598,107.016 569.074,107.016 575.625,118.592 582.266,107.016 
	588.125,107.016 578.227,123.709 578.227,134.631 572.688,134.631 572.688,123.709 "/>
</svg>
