<svg width="209" height="56" viewBox="0 0 209 56" fill="none" xmlns="http://www.w3.org/2000/svg">
<path d="M13.6699 56H0.0166016V50.207L13.6699 56ZM60.0938 56H47.5781C51.7875 54.1828 55.6564 52.5921 60.0938 50.6611V56ZM80.3457 40.7793C82.5078 40.7793 83.7592 41.1196 84.6699 41.916C85.1412 42.3245 85.5181 42.8309 85.7734 43.3994C86.0287 43.9679 86.1565 44.5851 86.1484 45.208C86.1484 46.6851 85.4655 47.822 84.6699 48.6162C83.7592 49.4127 82.5078 49.7529 80.3457 49.7529H78.5254V56H75.9082V40.7793H80.3457ZM96.0488 40.7793V43.0508H90.3594V47.2529H95.0254V49.5264H90.3594V53.7295H98.4375V40.7793H102.762C105.036 40.7793 106.288 41.1196 107.197 41.916C107.995 42.5976 108.677 43.7324 108.677 45.0957C108.677 46.5726 107.995 47.5955 107.197 48.3896C106.63 48.8436 106.061 49.1841 105.15 49.2979L109.248 56H106.175C106.146 55.9508 103.553 51.4469 102.307 49.5264H101.055V56H87.7422V40.7793H96.0488ZM115.619 40.7793L118.235 51.7979L120.966 40.7793H125.402V56H122.9V43.0508L119.601 56H116.871L113.57 43.0508V56H110.952V40.7793H115.619ZM135.303 40.7793L140.537 56H137.807L136.327 51.5713H130.752L129.387 56H126.771L132.005 40.7793H135.303ZM145.203 40.7793L151.233 52.4785V40.7793H153.735V56H150.207L144.178 44.5273V56H141.676V40.7793H145.203ZM164.772 40.7793V43.0508H159.084V47.2529H163.748V49.5264H159.084V53.7295H167.048V40.7793H170.576L176.605 52.5918V40.7793H190.829L190.943 43.0508H186.391V56H183.774V43.0508H179.107V56H175.582L169.55 44.415V56H156.465V40.7793H164.772ZM200.501 40.7793V43.0508H194.812V47.2529H199.362V49.5264H194.812V53.7295H201.07V56H192.193V40.7793H200.501ZM205.506 49.6396C207.213 49.6396 208.693 51 208.693 52.8184C208.693 54.6368 207.213 56 205.506 56C203.8 55.9998 202.321 54.6367 202.321 52.8184C202.321 51.0001 203.799 49.6398 205.506 49.6396ZM205.506 50.207C204.029 50.2072 202.891 51.3439 202.891 52.8184C202.891 54.2965 204.029 55.4336 205.506 55.4326C205.851 55.4382 206.195 55.3744 206.515 55.2451C206.835 55.1158 207.126 54.9234 207.37 54.6797C207.614 54.4358 207.807 54.1449 207.937 53.8252C208.066 53.5056 208.131 53.1631 208.125 52.8184C208.125 51.3438 206.985 50.207 205.506 50.207ZM205.62 51.0029C206.531 51.0029 206.985 51.345 206.985 52.0254C206.985 52.7058 206.531 52.9321 205.961 53.0459L207.1 54.6367H206.418L205.506 53.0459H204.824L204.826 54.6367H204.257V51.0029H205.62ZM204.824 51.458V52.5918L205.506 52.5938C205.961 52.5938 206.418 52.5932 206.418 52.0254C206.418 51.5715 205.961 51.458 205.62 51.458H204.824ZM60.0938 49.4131L47.2354 52.3662C51.2181 49.5271 55.7702 46.6858 60.0938 43.8467V49.4131ZM14.0117 52.252C9.80225 51.3439 4.68205 50.0933 0.0166016 49.0703V43.0508L14.0117 52.252ZM131.434 49.5264H135.644L133.482 43.1641L131.434 49.5264ZM60.0938 42.4834C55.0874 44.8673 50.5356 47.1392 45.5293 49.4141L60.0938 35.2139V42.4834ZM0.128906 34.0771C5.24921 39.075 10.3699 43.9599 15.4902 49.0703L0.128906 42.0303V34.0771ZM78.5254 43.0518V47.4824H80.6875C82.6219 47.4824 83.5322 46.5722 83.5322 45.209C83.5321 43.962 82.7357 43.0518 80.6875 43.0518H78.5254ZM101.055 43.0508V47.3691H103.216C105.265 47.3691 106.061 46.5726 106.062 45.0957C106.062 43.8474 105.267 43.0508 103.216 43.0508H101.055ZM57.8174 27.0352C58.3721 27.6024 58.8329 28.2541 59.1826 28.9658C59.9794 30.3291 60.2077 32.0319 60.0938 33.7354C54.5732 38.208 48.9582 42.5634 43.2529 46.7988L57.8174 27.0352ZM17.7666 46.5723C11.8495 42.0297 5.93369 37.3707 0.0166016 32.8281C-0.0973547 29.5339 0.357386 26.5809 1.83691 24.082L17.7666 46.5723ZM49.8525 23.2871C52.6965 23.4009 55.2014 24.3086 57.1357 26.3535L40.2949 44.6416L49.8525 23.2871ZM20.4961 44.3008L2.40527 23.2871C3.88366 21.1296 6.38872 19.6507 9.34668 19.5381L20.4961 44.3008ZM48.8291 23.2871C45.0744 30.1021 41.2056 36.6906 37.3369 43.3906L40.2949 28.9658C41.5466 24.9902 45.1874 23.6274 48.8291 23.2871ZM10.2568 19.4248C10.2568 19.4248 15.6043 18.9699 18.2227 22.6045C20.4977 25.6729 22.0898 36.4631 23.5693 42.9365C19.2458 35.5537 14.6943 27.149 10.2568 19.4248ZM35.5156 15.5625C36.3124 15.7901 37.1092 16.358 37.792 16.9258C39.8402 18.6292 41.4325 21.0142 40.75 23.8555L34.1504 42.2578L35.5156 15.5625ZM27.21 42.1436L20.6104 23.7422C20.0416 21.0157 21.5203 18.6304 23.6826 16.9258C24.2514 16.358 25.1622 15.7901 25.959 15.5625L27.21 42.1436ZM26.8682 15.335C29.3724 14.427 32.3292 14.5408 34.6055 15.335L30.7373 41.916L26.8682 15.335ZM109.247 17.1523C110.497 17.1523 111.863 17.4938 112.432 17.834V19.9922C111.863 19.6508 110.497 19.1973 109.247 19.1973C107.314 19.1973 106.402 20.2188 106.402 21.1279C106.402 22.3774 107.427 22.9453 109.476 23.627C112.093 24.65 113.458 26.0135 113.458 28.1709C113.458 30.5572 111.637 32.7148 107.769 32.7148C106.175 32.7148 104.582 32.2586 103.786 31.8047V29.4189C104.695 30.1006 106.516 30.5557 107.882 30.5557C109.702 30.5556 110.838 29.6468 110.838 28.3975C110.838 27.148 109.929 26.4658 107.994 25.7842C105.492 24.875 103.785 23.6269 103.785 21.3545C103.785 18.9694 105.947 17.1524 109.247 17.1523ZM130.184 17.3799C132.346 17.3799 133.595 17.7202 134.507 18.5156C135.416 19.1973 135.986 20.2205 135.986 21.6963C135.986 23.0594 135.302 24.1954 134.507 24.877C134.052 25.3309 133.367 25.6721 132.458 25.8984L136.554 32.4883H133.48C133.464 32.4597 130.862 27.9377 129.727 26.126H128.363V32.4893H115.164V17.3809H123.47V19.5381H117.666V23.8545H122.333V26.0137H117.666V30.3291H125.744V17.3799H130.184ZM78.5254 17.3799V24.5352L83.873 17.3799H86.9463L81.1436 24.7627L85.4668 30.2158L89.9043 17.3799H93.2031L98.4375 32.4883H95.708L94.2285 28.1709H88.6523L87.1719 32.4883H84.1006L78.5254 25.1045V32.4883H75.9082V17.3799H78.5254ZM101.852 17.3799V32.4883H99.2344V17.3799H101.852ZM89.335 26.0137H93.5439L91.3828 19.7646L89.335 26.0137ZM128.363 19.5381V23.8545H130.638C132.572 23.8545 133.368 23.1731 133.368 21.6963C133.368 20.3342 132.572 19.5381 130.638 19.5381H128.363ZM43.8232 16.2441C43.5952 8.06577 55.6545 8.17957 55.4277 16.2441C55.7697 24.0823 43.7093 23.7409 43.8232 16.2441ZM4.79492 12.042C4.33894 4.20503 16.9699 3.86362 16.6279 12.042C17.4244 20.3338 4.3404 20.22 4.79492 12.042ZM30.7373 0C34.4919 9.01571e-05 37.6782 2.04525 37.4502 7.04297C37.3373 10.3372 35.5153 13.7455 30.7373 13.6318C25.3891 13.518 24.2508 9.77065 24.1367 7.04297C24.0239 2.15895 26.9826 0 30.7373 0Z" fill="#367CA8"/>
</svg>
