<svg width="163" height="56" viewBox="0 0 163 56" fill="none" xmlns="http://www.w3.org/2000/svg">
<path fill-rule="evenodd" clip-rule="evenodd" d="M7.28287 41.9416L7.28314 41.9434V41.9434C7.69865 42.5663 8.1436 43.1703 8.61293 43.7521C8.87037 44.0712 8.85353 44.5353 8.56417 44.8255L7.58855 45.8045C7.26763 46.1263 6.74119 46.1088 6.45331 45.7567C6.00488 45.2083 5.57681 44.643 5.16988 44.0616C1.99137 39.515 0.125 33.9604 0.125 28.0029C0.125 22.0455 1.98158 16.5224 5.14246 11.9797C5.70844 11.1662 6.31555 10.3842 6.96183 9.63756C7.81961 8.64925 8.74399 7.71987 9.73103 6.85927C10.4752 6.21087 11.2547 5.60177 12.0655 5.03393C16.5894 1.86267 22.0749 0 28.0305 0C33.986 0 39.5048 1.87249 44.0366 5.06144C44.6163 5.46981 45.1809 5.89935 45.7275 6.34938C46.0779 6.63798 46.0951 7.16558 45.7745 7.48728L44.798 8.46687C44.5087 8.75718 44.0462 8.77408 43.7279 8.51595C43.1478 8.04537 42.5467 7.59999 41.9253 7.1815C37.9517 4.50735 33.1556 2.94727 28.0305 2.94727C23.2473 2.94727 18.7795 4.2976 14.9824 6.63728C14.5614 6.89669 14.5043 7.48077 14.8537 7.83128L15.5734 8.5534C15.8329 8.81377 16.2371 8.8572 16.5522 8.66839C19.908 6.65742 23.8183 5.50156 28.0305 5.50156C32.4682 5.50156 36.6043 6.79443 40.0865 9.02649C40.9228 9.56289 41.7218 10.1543 42.4776 10.7949C43.4764 11.6397 44.4028 12.573 45.241 13.579C45.8775 14.3414 46.4631 15.147 46.9939 15.9899C49.1852 19.4637 50.4543 23.5644 50.4543 27.999C50.4543 32.4336 49.1754 36.5676 46.9684 40.0514C46.5889 40.6503 46.1817 41.2305 45.7487 41.7896C45.4666 42.1535 44.9322 42.1761 44.6073 41.8501L43.6268 40.8662C43.3425 40.5809 43.3209 40.1269 43.564 39.8052C44.0219 39.199 44.4449 38.5653 44.8317 37.9077C46.5395 35.0018 47.5185 31.5985 47.5185 27.999C47.5185 24.7628 46.7336 21.7125 45.3468 19.0249C45.1108 18.5677 44.5027 18.4893 44.1398 18.8533L43.3952 19.6003C43.1515 19.8448 43.0975 20.2197 43.2492 20.5302C44.3499 22.7824 44.9707 25.3018 44.9707 27.999C44.9707 30.9049 44.2422 33.6381 42.9613 36.0314C42.4854 36.9213 41.9312 37.7603 41.3105 38.5443C40.4978 39.5739 39.5675 40.5073 38.5412 41.3227C37.7579 41.9454 36.9216 42.5014 36.0365 42.9789C33.6531 44.264 30.9092 44.9949 28.0305 44.9949C25.1517 44.9949 22.4431 44.2738 20.0694 43.0025C19.4431 42.6669 18.8412 42.293 18.265 41.8837C17.8821 41.6115 17.8505 41.0614 18.1823 40.7285L19.1705 39.737C19.446 39.4607 19.8806 39.4315 20.2038 39.6498C20.8546 40.0893 21.5443 40.474 22.2649 40.802C24.0236 41.6017 25.9545 42.0495 28.0305 42.0495C30.1064 42.0495 32.0745 41.5939 33.845 40.7804C34.7714 40.356 35.6448 39.8353 36.4496 39.2261C37.4974 38.4343 38.4296 37.499 39.2189 36.4477C39.826 35.6404 40.345 34.764 40.768 33.8346C41.5789 32.0564 42.033 30.0641 42.033 28.001C42.033 25.9378 41.5867 23.981 40.7896 22.2165C40.4629 21.4926 40.0798 20.8006 39.6419 20.1488C39.4241 19.8246 39.4531 19.388 39.7287 19.1114L41.3399 17.495L42.6537 16.1768C42.9377 15.892 42.9621 15.4368 42.6979 15.1335C41.9923 14.324 41.2205 13.5724 40.392 12.8894C39.6262 12.2567 38.8076 11.683 37.9498 11.1721C35.0436 9.44304 31.6358 8.45079 28.0305 8.45079C24.4251 8.45079 21.0506 9.43517 18.1542 11.1466C17.4987 11.5346 16.867 11.9591 16.2628 12.4185C15.9422 12.6622 15.4897 12.6408 15.2052 12.3554L13.6204 10.7654L12.3274 9.46811C12.0381 9.17785 11.5739 9.15887 11.2709 9.43464C10.4819 10.1525 9.73837 10.9201 9.04558 11.7321C8.40518 12.4846 7.8059 13.2764 7.25558 14.1036C4.60781 18.0805 3.06263 22.8413 3.06263 28.001C3.06263 33.1603 4.6178 37.9572 7.28287 41.9416V41.9416ZM50.9492 12.024L50.9508 12.0249L50.9522 12.0257C54.0971 16.5564 55.9418 22.0459 55.9418 28.0029C55.9418 33.9604 54.0851 39.4816 50.9243 44.0203C50.3583 44.8338 49.7512 45.6158 49.1049 46.3625C48.2471 47.3508 47.3227 48.2801 46.3356 49.1407C45.5916 49.7891 44.8121 50.3982 44.0013 50.9661C39.4774 54.1373 33.9566 56 28.0363 56C22.116 56 16.6266 54.1491 12.1105 50.9936C11.5301 50.5886 10.9648 50.1622 10.4167 49.715C10.0639 49.4272 10.0457 48.8976 10.3672 48.5752L11.3445 47.5945C11.6333 47.3049 12.0946 47.2874 12.4131 47.544C12.9958 48.0134 13.6002 48.4575 14.2236 48.8735C18.1796 51.5123 22.9092 53.0528 28.0344 53.0528C32.8176 53.0528 37.2853 51.7023 41.0824 49.3627C41.5035 49.1034 41.5604 48.5192 41.2111 48.1686L40.4913 47.4465C40.2318 47.1862 39.8278 47.1428 39.5125 47.3314C36.1533 49.3425 32.2112 50.4984 28.0344 50.4984C23.6339 50.4984 19.5289 49.2252 16.0645 47.0266C15.2243 46.4922 14.4214 45.9047 13.6615 45.268C12.6588 44.4271 11.7305 43.4977 10.8864 42.4956C10.248 41.7373 9.65853 40.9356 9.12388 40.0966C6.89912 36.603 5.61048 32.4356 5.61048 28.001C5.61048 23.5664 6.88933 19.4323 9.09646 15.9486C9.4759 15.3496 9.88317 14.7695 10.3161 14.2105C10.5981 13.8465 11.1325 13.824 11.4574 14.1499L12.438 15.1337C12.7224 15.419 12.7438 15.8731 12.5009 16.1947C12.043 16.8009 11.6198 17.4346 11.2331 18.0923C9.52535 20.9982 8.54615 24.3661 8.54615 28.001C8.54615 31.2745 9.34979 34.3583 10.7669 37.0689C11.0045 37.5233 11.6105 37.5998 11.9722 37.2369L12.7118 36.4949C12.9569 36.2489 13.0101 35.8716 12.8559 35.5602C11.7271 33.2811 11.0921 30.6996 11.0921 28.001C11.0921 25.0951 11.8206 22.3619 13.1014 19.9686C13.5773 19.0786 14.1315 18.2397 14.7523 17.4557C15.5651 16.4261 16.4953 15.4928 17.5216 14.6774C18.3049 14.0545 19.1412 13.4985 20.0263 13.021C22.4098 11.736 25.1162 11.0051 28.0324 11.0051C30.9484 11.0051 33.6903 11.7439 36.0853 13.0446C36.7097 13.3835 37.3096 13.7627 37.883 14.1758C38.2628 14.4495 38.2927 14.9974 37.9621 15.3291L36.9739 16.3206C36.6969 16.5984 36.2596 16.6264 35.9367 16.4046C35.2921 15.9622 34.6094 15.5729 33.894 15.2413C32.1098 14.4141 30.1082 13.9504 28.0324 13.9504C25.9564 13.9504 23.9881 14.4062 22.2179 15.2197C21.2915 15.6441 20.418 16.1648 19.6131 16.7739C18.5654 17.5657 17.6332 18.501 16.8439 19.5522C16.2368 20.3596 15.7179 21.236 15.2948 22.1654C14.4841 23.9436 14.0297 25.8985 14.0297 27.999C14.0297 30.0995 14.4938 32.0898 15.3164 33.8798C15.6469 34.5978 16.0349 35.2828 16.4759 35.9292C16.6969 36.2534 16.669 36.6922 16.3922 36.9698L14.7837 38.5836L13.4726 39.8991C13.1875 40.185 13.1641 40.6424 13.4313 40.9454C14.1409 41.7497 14.9165 42.4946 15.7472 43.1734C16.5188 43.8042 17.3394 44.374 18.2011 44.881C21.0878 46.5786 24.4288 47.5513 28.0344 47.5513C31.6397 47.5513 35.0142 46.5668 37.9106 44.8554C38.5661 44.4673 39.1977 44.0429 39.8019 43.5835C40.1225 43.3397 40.5751 43.3613 40.8595 43.6466L42.4443 45.2366L43.7373 46.5338C44.0268 46.8241 44.4909 46.8431 44.7939 46.5672C45.583 45.8495 46.3264 45.0818 47.0191 44.2699C47.6596 43.5173 48.2588 42.7254 48.8092 41.8984C51.4571 37.9214 53.0021 33.1253 53.0021 28.001C53.0021 22.8767 51.4688 18.1139 48.8366 14.1449C48.422 13.5195 47.9794 12.9131 47.5113 12.3284C47.2557 12.009 47.2731 11.5461 47.5618 11.2564L48.5383 10.2768C48.8601 9.95385 49.3885 9.9726 49.6756 10.327C50.1208 10.8761 50.546 11.4426 50.9492 12.024ZM36.9179 20.9703H19.1374C18.6732 20.9703 18.3736 21.4616 18.5851 21.8742L27.5136 39.2623C27.7445 39.7123 28.3869 39.7103 28.618 39.2623L37.4702 21.8762C37.6817 21.4635 37.382 20.9723 36.9179 20.9723V20.9703ZM34.268 24.5818L28.9999 34.9295C28.8628 35.1967 28.4809 35.1987 28.3438 34.9295L23.0287 24.5799C22.9033 24.3343 23.0816 24.0415 23.3577 24.0415H33.941C34.2171 24.0415 34.3953 24.3343 34.27 24.5799L34.268 24.5818ZM77.8235 18.7304C79.4416 17.7555 81.3359 17.193 83.3606 17.193C89.3104 17.193 94.1322 22.0306 94.1322 28C94.1322 33.9694 89.3104 38.807 83.3606 38.807C77.4107 38.807 72.5889 33.9694 72.5889 28C72.5889 25.9262 73.1717 23.9902 74.1811 22.3452C74.4324 21.9357 74.9951 21.8942 75.3339 22.2342L76.6606 23.5652C76.9213 23.8267 76.9608 24.2331 76.7879 24.5598C76.2291 25.616 75.9124 26.8195 75.9124 28.0982C75.9124 32.2796 79.2908 35.6691 83.4585 35.6691C87.6261 35.6691 91.0045 32.2796 91.0045 28.0982C91.0045 23.9169 87.6261 20.5274 83.4585 20.5274C82.2178 20.5274 81.0492 20.8285 80.0178 21.3596C79.6939 21.5266 79.2947 21.4844 79.0372 21.226L77.7064 19.8908C77.3654 19.5487 77.4099 18.9796 77.8235 18.7304ZM113.56 24.3649L114.246 23.6772L115.029 22.8912C115.323 22.5965 115.848 22.6796 116.067 23.0877C116.753 24.3649 117.24 25.8406 117.24 28.002C117.24 30.1634 116.739 31.8591 115.738 33.486C114.739 35.0914 113.341 36.3469 111.549 37.2528C109.757 38.1586 107.671 38.6105 105.296 38.6105H98.8326C98.4 38.6105 98.0492 38.2586 98.0492 37.8246V18.1754C98.0492 17.7414 98.4 17.3895 98.8326 17.3895H105.296C107.671 17.3895 109.757 17.8414 111.549 18.7472C111.906 18.9281 112.247 19.1227 112.572 19.331C112.982 19.5938 113.008 20.17 112.649 20.5005L111.338 21.7123C111.062 21.9677 110.646 21.9858 110.325 21.7887C110.168 21.692 110.005 21.6003 109.835 21.5138C108.649 20.8968 107.035 20.5883 105.388 20.5883H102.26C101.827 20.5883 101.477 20.9403 101.477 21.3743V34.6218C101.477 35.0558 101.827 35.4077 102.26 35.4077H105.388C107.035 35.4077 108.647 35.0992 109.835 34.4822C111.044 33.8653 112.168 32.8042 112.814 31.6921C113.482 30.5799 113.815 29.4796 113.815 27.998C113.815 27.0148 113.669 26.072 113.382 25.2747C113.269 24.9603 113.325 24.6013 113.56 24.3649ZM131.931 17.193C125.981 17.193 121.159 22.0306 121.159 28C121.159 30.036 121.722 31.941 122.699 33.5672C122.948 33.9812 123.514 34.0254 123.855 33.6835L125.12 32.4144C125.374 32.1595 125.419 31.7659 125.26 31.4427C124.764 30.4339 124.485 29.2984 124.485 28.0982C124.485 23.9169 127.863 20.5274 132.031 20.5274C136.198 20.5274 139.577 23.9169 139.577 28.0982C139.577 32.2796 136.198 35.6691 132.031 35.6691C130.714 35.6691 129.477 35.3301 128.4 34.7357C128.073 34.5551 127.661 34.5923 127.397 34.8571L126.198 36.0603C125.859 36.4004 125.901 36.9655 126.31 37.217C127.947 38.2256 129.872 38.807 131.935 38.807C137.885 38.807 142.707 33.9694 142.707 28C142.707 22.0306 137.881 17.193 131.931 17.193ZM150.666 34.9047C151.896 35.3448 153.157 35.5649 154.448 35.5649H154.45C154.883 35.5649 155.314 35.5459 155.719 35.5077C155.961 35.4849 156.203 35.5659 156.375 35.7384L157.908 37.2756C158.31 37.6794 158.158 38.3559 157.603 38.4826C156.656 38.6988 155.581 38.807 154.45 38.807C152.822 38.807 151.263 38.5771 149.775 38.1173C148.533 37.7181 147.507 37.2274 146.694 36.6466C146.41 36.4442 146.327 36.0668 146.468 35.7475L147.16 34.1808C147.367 33.7114 147.962 33.5642 148.397 33.834C149.058 34.2435 149.814 34.6003 150.666 34.9047ZM161.953 35.6848C162.568 34.7239 162.875 33.6825 162.875 32.5625C162.875 31.4425 162.646 30.5505 162.19 29.8313C161.753 29.1102 161.167 28.5404 160.433 28.1199C159.718 27.6994 158.913 27.3594 158.02 27.1001C157.146 26.8407 156.263 26.6088 155.37 26.4104C154.477 26.1903 153.662 25.9702 152.928 25.7502C152.213 25.5301 151.432 25.2295 150.975 24.8502C150.539 24.4494 150.319 23.9287 150.319 23.2901C150.319 22.7498 150.468 22.2703 150.766 21.8498C151.083 21.4293 151.571 21.0894 152.225 20.83C152.9 20.5707 153.97 20.439 155.041 20.439C155.954 20.439 156.907 20.5785 157.9 20.8595C158.611 21.0452 159.306 21.3081 159.986 21.648C160.417 21.8632 160.952 21.685 161.132 21.2374L161.769 19.6552C161.909 19.3078 161.786 18.9065 161.46 18.7238C160.674 18.2833 159.785 17.9345 158.794 17.6764C157.562 17.3561 156.322 17.1969 155.07 17.1969C153.165 17.1969 151.586 17.4877 150.335 18.0674C149.105 18.6274 148.181 19.3878 147.566 20.3486C146.97 21.2898 146.672 22.3293 146.672 23.4709C146.672 24.6125 146.902 25.5124 147.358 26.2335C147.814 26.9547 148.4 27.5343 149.115 27.9745C149.849 28.3949 150.654 28.7447 151.528 29.0257C152.421 29.2851 153.304 29.5169 154.177 29.7154L154.315 29.7462C155.172 29.9382 156.108 30.148 156.786 30.3756C157.52 30.5956 158.116 30.9061 158.572 31.3069C159.028 31.6881 159.258 32.1971 159.258 32.8376C159.258 32.9718 159.247 33.1025 159.226 33.2298C159.173 33.5446 159.226 33.8831 159.451 34.1087L161.089 35.7522C161.341 36.0043 161.759 35.9893 161.951 35.6887L161.953 35.6848Z" fill="#141414"/>
</svg>
