<svg xmlns="http://www.w3.org/2000/svg" version="1.1" xmlns:xlink="http://www.w3.org/1999/xlink" width="20" height="20"><svg xmlns="http://www.w3.org/2000/svg" version="1.1" xmlns:xlink="http://www.w3.org/1999/xlink" width="20" height="20"><svg width="20" height="20" viewBox="0 0 20 20" fill="none" xmlns="http://www.w3.org/2000/svg">
<path d="M5.4929 8.28267C5.45881 7.93892 5.3125 7.67187 5.05398 7.48153C4.79545 7.29119 4.4446 7.19602 4.00142 7.19602C3.70028 7.19602 3.44602 7.23864 3.23864 7.32386C3.03125 7.40625 2.87216 7.52131 2.76136 7.66903C2.65341 7.81676 2.59943 7.98438 2.59943 8.17188C2.59375 8.32812 2.62642 8.46449 2.69744 8.58097C2.77131 8.69744 2.87216 8.7983 3 8.88352C3.12784 8.96591 3.27557 9.03835 3.44318 9.10085C3.6108 9.16051 3.78977 9.21165 3.98011 9.25426L4.7642 9.44176C5.14489 9.52699 5.49432 9.64062 5.8125 9.78267C6.13068 9.92472 6.40625 10.0994 6.6392 10.3068C6.87216 10.5142 7.05256 10.7585 7.1804 11.0398C7.31108 11.321 7.37784 11.6435 7.38068 12.0071C7.37784 12.5412 7.24148 13.0043 6.97159 13.3963C6.70455 13.7855 6.31818 14.0881 5.8125 14.304C5.30966 14.517 4.70313 14.6236 3.9929 14.6236C3.28835 14.6236 2.67472 14.5156 2.15199 14.2997C1.6321 14.0838 1.22585 13.7642 0.933239 13.3409C0.643466 12.9148 0.491477 12.3878 0.477273 11.7599H2.26278C2.28267 12.0526 2.36648 12.2969 2.5142 12.4929C2.66477 12.6861 2.86506 12.8324 3.11506 12.9318C3.3679 13.0284 3.65341 13.0767 3.97159 13.0767C4.28409 13.0767 4.5554 13.0312 4.78551 12.9403C5.01847 12.8494 5.19886 12.723 5.3267 12.5611C5.45455 12.3991 5.51847 12.2131 5.51847 12.0028C5.51847 11.8068 5.46023 11.642 5.34375 11.5085C5.23011 11.375 5.0625 11.2614 4.84091 11.1676C4.62216 11.0739 4.35369 10.9886 4.03551 10.9119L3.08523 10.6733C2.34943 10.4943 1.76847 10.2145 1.34233 9.83381C0.916193 9.45312 0.704545 8.94034 0.707386 8.29545C0.704545 7.76705 0.84517 7.3054 1.12926 6.91051C1.41619 6.51562 1.80966 6.20739 2.30966 5.9858C2.80966 5.7642 3.37784 5.65341 4.0142 5.65341C4.66193 5.65341 5.22727 5.7642 5.71023 5.9858C6.19602 6.20739 6.57386 6.51562 6.84375 6.91051C7.11364 7.3054 7.25284 7.76278 7.26136 8.28267H5.4929ZM8.6218 14.5V5.77273H10.467V9.62074H10.582L13.7227 5.77273H15.9343L12.6957 9.6804L15.9727 14.5H13.7653L11.3746 10.9119L10.467 12.0199V14.5H8.6218Z" fill="black"></path>
<path d="M17.9222 14.6108C17.641 14.6108 17.3995 14.5114 17.1978 14.3125C16.9989 14.1108 16.8995 13.8693 16.8995 13.5881C16.8995 13.3097 16.9989 13.071 17.1978 12.8722C17.3995 12.6733 17.641 12.5739 17.9222 12.5739C18.195 12.5739 18.4336 12.6733 18.6381 12.8722C18.8427 13.071 18.945 13.3097 18.945 13.5881C18.945 13.7756 18.8967 13.9474 18.8001 14.1037C18.7063 14.2571 18.5827 14.3807 18.4293 14.4744C18.2759 14.5653 18.1069 14.6108 17.9222 14.6108Z" fill="#BEA265"></path>
</svg></svg><style>@media (prefers-color-scheme: light) { :root { filter: none; } }
@media (prefers-color-scheme: dark) { :root { filter: none; } }
</style></svg>